<mxfile host="app.diagrams.net" agent="Mozilla/5.0 (X11; Ubuntu; Linux x86_64; rv:133.0) Gecko/20100101 Firefox/133.0" version="25.0.3">
  <diagram name="Страница — 1" id="SBmIS_irQ9BikLyN64Lw">
    <mxGraphModel dx="1510" dy="372" grid="1" gridSize="11" guides="1" tooltips="1" connect="1" arrows="1" fold="1" page="1" pageScale="1" pageWidth="827" pageHeight="1169" math="0" shadow="0">
      <root>
        <mxCell id="0" />
        <mxCell id="1" parent="0" />
        <mxCell id="PJscLLjkkIj1mS5u6vCQ-1" value="&lt;div&gt;1&lt;/div&gt;&lt;div&gt;Начальна форма&lt;/div&gt;&lt;div&gt;- Авторизация&lt;/div&gt;&lt;div&gt;- Регистрация&lt;/div&gt;&lt;div&gt;- Справка&lt;br&gt;&lt;/div&gt;&lt;div&gt;- Выход&lt;br&gt;&lt;/div&gt;" style="rounded=0;whiteSpace=wrap;html=1;arcSize=14;strokeOpacity=100;" parent="1" vertex="1">
          <mxGeometry x="300" y="80" width="240" height="90" as="geometry" />
        </mxCell>
        <mxCell id="PJscLLjkkIj1mS5u6vCQ-3" value="&lt;div&gt;-input логин&lt;/div&gt;&lt;div&gt;- input пароль&lt;/div&gt;&lt;div&gt;- Отправить&lt;br&gt;&lt;/div&gt;" style="rounded=0;whiteSpace=wrap;html=1;arcSize=14;strokeOpacity=100;" parent="1" vertex="1">
          <mxGeometry x="-280" y="230" width="280" height="160" as="geometry" />
        </mxCell>
        <mxCell id="PJscLLjkkIj1mS5u6vCQ-4" value="Авторизация" style="rounded=0;whiteSpace=wrap;html=1;arcSize=14;strokeOpacity=100;" parent="1" vertex="1">
          <mxGeometry x="-200" y="230" width="120" height="20" as="geometry" />
        </mxCell>
        <mxCell id="PJscLLjkkIj1mS5u6vCQ-26" style="edgeStyle=orthogonalEdgeStyle;rounded=0;orthogonalLoop=1;jettySize=auto;html=1;entryX=0.5;entryY=0;entryDx=0;entryDy=0;" parent="1" source="PJscLLjkkIj1mS5u6vCQ-5" target="PJscLLjkkIj1mS5u6vCQ-24" edge="1">
          <mxGeometry relative="1" as="geometry" />
        </mxCell>
        <mxCell id="PJscLLjkkIj1mS5u6vCQ-5" value="&lt;div&gt;- input логин&lt;/div&gt;&lt;div&gt;- input пароль&lt;/div&gt;&lt;div&gt;-input email&lt;br&gt;&lt;/div&gt;&lt;div&gt;- чек бокс (пароль проверил)&lt;/div&gt;&lt;div&gt;- Отправить&lt;br&gt;&lt;/div&gt;" style="rounded=0;whiteSpace=wrap;html=1;arcSize=14;strokeOpacity=100;" parent="1" vertex="1">
          <mxGeometry x="50" y="230" width="280" height="160" as="geometry" />
        </mxCell>
        <mxCell id="PJscLLjkkIj1mS5u6vCQ-6" value="Регистрация" style="rounded=0;whiteSpace=wrap;html=1;arcSize=14;strokeOpacity=100;" parent="1" vertex="1">
          <mxGeometry x="130" y="230" width="120" height="20" as="geometry" />
        </mxCell>
        <mxCell id="PJscLLjkkIj1mS5u6vCQ-7" value="&lt;div&gt;Текстовая информация с описанием программы, возможностями, особенностями&lt;/div&gt;&lt;div&gt;- Вернуться&lt;br&gt;&lt;/div&gt;" style="rounded=0;whiteSpace=wrap;html=1;arcSize=14;strokeOpacity=100;" parent="1" vertex="1">
          <mxGeometry x="390" y="230" width="280" height="160" as="geometry" />
        </mxCell>
        <mxCell id="PJscLLjkkIj1mS5u6vCQ-8" value="Справка" style="rounded=0;whiteSpace=wrap;html=1;arcSize=14;strokeOpacity=100;" parent="1" vertex="1">
          <mxGeometry x="470" y="230" width="120" height="20" as="geometry" />
        </mxCell>
        <mxCell id="PJscLLjkkIj1mS5u6vCQ-9" value="Выход (закрытие приложения)" style="whiteSpace=wrap;html=1;aspect=fixed;arcSize=14;strokeOpacity=100;" parent="1" vertex="1">
          <mxGeometry x="740" y="230" width="110" height="110" as="geometry" />
        </mxCell>
        <mxCell id="PJscLLjkkIj1mS5u6vCQ-10" value="" style="endArrow=classic;html=1;rounded=0;exitX=0;exitY=0.5;exitDx=0;exitDy=0;entryX=0.592;entryY=-0.1;entryDx=0;entryDy=0;entryPerimeter=0;arcSize=14;strokeOpacity=100;" parent="1" source="PJscLLjkkIj1mS5u6vCQ-1" target="PJscLLjkkIj1mS5u6vCQ-4" edge="1">
          <mxGeometry width="50" height="50" relative="1" as="geometry">
            <mxPoint x="390" y="490" as="sourcePoint" />
            <mxPoint x="440" y="440" as="targetPoint" />
          </mxGeometry>
        </mxCell>
        <mxCell id="PJscLLjkkIj1mS5u6vCQ-11" value="" style="endArrow=classic;html=1;rounded=0;exitX=0.25;exitY=1;exitDx=0;exitDy=0;entryX=0.583;entryY=0;entryDx=0;entryDy=0;entryPerimeter=0;arcSize=14;strokeOpacity=100;" parent="1" source="PJscLLjkkIj1mS5u6vCQ-1" target="PJscLLjkkIj1mS5u6vCQ-6" edge="1">
          <mxGeometry width="50" height="50" relative="1" as="geometry">
            <mxPoint x="390" y="490" as="sourcePoint" />
            <mxPoint x="440" y="440" as="targetPoint" />
          </mxGeometry>
        </mxCell>
        <mxCell id="PJscLLjkkIj1mS5u6vCQ-12" value="" style="endArrow=classic;html=1;rounded=0;exitX=0.625;exitY=1;exitDx=0;exitDy=0;exitPerimeter=0;entryX=0.5;entryY=0;entryDx=0;entryDy=0;arcSize=14;strokeOpacity=100;" parent="1" source="PJscLLjkkIj1mS5u6vCQ-1" target="PJscLLjkkIj1mS5u6vCQ-8" edge="1">
          <mxGeometry width="50" height="50" relative="1" as="geometry">
            <mxPoint x="390" y="490" as="sourcePoint" />
            <mxPoint x="440" y="440" as="targetPoint" />
          </mxGeometry>
        </mxCell>
        <mxCell id="PJscLLjkkIj1mS5u6vCQ-13" value="" style="endArrow=classic;html=1;rounded=0;exitX=1;exitY=0.5;exitDx=0;exitDy=0;entryX=0.5;entryY=0;entryDx=0;entryDy=0;arcSize=14;strokeOpacity=100;" parent="1" source="PJscLLjkkIj1mS5u6vCQ-1" target="PJscLLjkkIj1mS5u6vCQ-9" edge="1">
          <mxGeometry width="50" height="50" relative="1" as="geometry">
            <mxPoint x="390" y="490" as="sourcePoint" />
            <mxPoint x="440" y="440" as="targetPoint" />
          </mxGeometry>
        </mxCell>
        <mxCell id="PJscLLjkkIj1mS5u6vCQ-15" value="&lt;font style=&quot;font-size: 17px;&quot;&gt;&lt;b&gt;Формы, взаимодействие клиентской части&lt;/b&gt;&lt;/font&gt;" style="text;html=1;align=center;verticalAlign=middle;resizable=0;points=[];autosize=1;strokeColor=none;fillColor=none;" parent="1" vertex="1">
          <mxGeometry x="198" y="22" width="396" height="33" as="geometry" />
        </mxCell>
        <mxCell id="PJscLLjkkIj1mS5u6vCQ-34" style="edgeStyle=orthogonalEdgeStyle;rounded=0;orthogonalLoop=1;jettySize=auto;html=1;entryX=0.554;entryY=0.939;entryDx=0;entryDy=0;entryPerimeter=0;fillColor=#f8cecc;strokeColor=#b85450;" parent="1" source="PJscLLjkkIj1mS5u6vCQ-17" target="PJscLLjkkIj1mS5u6vCQ-33" edge="1">
          <mxGeometry relative="1" as="geometry">
            <mxPoint x="-55" y="536" as="targetPoint" />
          </mxGeometry>
        </mxCell>
        <mxCell id="PJscLLjkkIj1mS5u6vCQ-17" value="Проверка введённых данных" style="rounded=0;whiteSpace=wrap;html=1;" parent="1" vertex="1">
          <mxGeometry x="-305" y="506" width="195" height="60" as="geometry" />
        </mxCell>
        <mxCell id="PJscLLjkkIj1mS5u6vCQ-19" style="edgeStyle=orthogonalEdgeStyle;rounded=0;orthogonalLoop=1;jettySize=auto;html=1;entryX=0.355;entryY=0.05;entryDx=0;entryDy=0;entryPerimeter=0;" parent="1" source="PJscLLjkkIj1mS5u6vCQ-3" target="PJscLLjkkIj1mS5u6vCQ-17" edge="1">
          <mxGeometry relative="1" as="geometry" />
        </mxCell>
        <mxCell id="PJscLLjkkIj1mS5u6vCQ-37" style="edgeStyle=orthogonalEdgeStyle;rounded=0;orthogonalLoop=1;jettySize=auto;html=1;exitX=1;exitY=0.5;exitDx=0;exitDy=0;entryX=0.711;entryY=1.091;entryDx=0;entryDy=0;entryPerimeter=0;fillColor=#f8cecc;strokeColor=#b85450;" parent="1" source="PJscLLjkkIj1mS5u6vCQ-24" target="PJscLLjkkIj1mS5u6vCQ-30" edge="1">
          <mxGeometry relative="1" as="geometry">
            <mxPoint x="319" y="536" as="targetPoint" />
          </mxGeometry>
        </mxCell>
        <mxCell id="PJscLLjkkIj1mS5u6vCQ-40" style="edgeStyle=orthogonalEdgeStyle;rounded=0;orthogonalLoop=1;jettySize=auto;html=1;fillColor=#d5e8d4;strokeColor=#82b366;" parent="1" source="PJscLLjkkIj1mS5u6vCQ-24" edge="1">
          <mxGeometry relative="1" as="geometry">
            <mxPoint x="143" y="627" as="targetPoint" />
          </mxGeometry>
        </mxCell>
        <mxCell id="PJscLLjkkIj1mS5u6vCQ-24" value="Проверка введённых данных" style="rounded=0;whiteSpace=wrap;html=1;" parent="1" vertex="1">
          <mxGeometry x="121" y="506" width="120" height="60" as="geometry" />
        </mxCell>
        <mxCell id="PJscLLjkkIj1mS5u6vCQ-30" value="Данные не верны" style="text;html=1;align=center;verticalAlign=middle;resizable=0;points=[];autosize=1;strokeColor=#b85450;fillColor=#f8cecc;" parent="1" vertex="1">
          <mxGeometry x="220" y="440" width="121" height="33" as="geometry" />
        </mxCell>
        <mxCell id="PJscLLjkkIj1mS5u6vCQ-32" style="edgeStyle=orthogonalEdgeStyle;rounded=0;orthogonalLoop=1;jettySize=auto;html=1;entryX=0.793;entryY=0.994;entryDx=0;entryDy=0;entryPerimeter=0;fillColor=#f8cecc;strokeColor=#b85450;" parent="1" source="PJscLLjkkIj1mS5u6vCQ-30" target="PJscLLjkkIj1mS5u6vCQ-5" edge="1">
          <mxGeometry relative="1" as="geometry" />
        </mxCell>
        <mxCell id="PJscLLjkkIj1mS5u6vCQ-33" value="Данные не верны" style="text;html=1;align=center;verticalAlign=middle;resizable=0;points=[];autosize=1;strokeColor=#b85450;fillColor=#f8cecc;" parent="1" vertex="1">
          <mxGeometry x="-121" y="451" width="121" height="33" as="geometry" />
        </mxCell>
        <mxCell id="PJscLLjkkIj1mS5u6vCQ-35" style="edgeStyle=orthogonalEdgeStyle;rounded=0;orthogonalLoop=1;jettySize=auto;html=1;entryX=0.784;entryY=0.969;entryDx=0;entryDy=0;entryPerimeter=0;fillColor=#f8cecc;strokeColor=#b85450;" parent="1" source="PJscLLjkkIj1mS5u6vCQ-33" target="PJscLLjkkIj1mS5u6vCQ-3" edge="1">
          <mxGeometry relative="1" as="geometry" />
        </mxCell>
        <mxCell id="PJscLLjkkIj1mS5u6vCQ-38" value="&lt;div&gt;-Ввод Данные банковских карт&lt;/div&gt;&lt;div&gt;- Ввод Произвольные текстовые данные&lt;/div&gt;&lt;div&gt;- Ввод Бинарные данные&lt;/div&gt;&lt;div&gt;Запрос данных&lt;br&gt;&lt;/div&gt;&lt;div&gt;&lt;br&gt;&lt;/div&gt;" style="rounded=0;whiteSpace=wrap;html=1;" parent="1" vertex="1">
          <mxGeometry x="-198" y="715" width="374" height="176" as="geometry" />
        </mxCell>
        <mxCell id="PJscLLjkkIj1mS5u6vCQ-39" value="" style="endArrow=classic;html=1;rounded=0;" parent="1" edge="1">
          <mxGeometry width="50" height="50" relative="1" as="geometry">
            <mxPoint x="143" y="627" as="sourcePoint" />
            <mxPoint y="627" as="targetPoint" />
          </mxGeometry>
        </mxCell>
        <mxCell id="PJscLLjkkIj1mS5u6vCQ-41" value="" style="endArrow=classic;html=1;rounded=0;entryX=0.961;entryY=0.969;entryDx=0;entryDy=0;entryPerimeter=0;fillColor=#d5e8d4;strokeColor=#82b366;" parent="1" target="PJscLLjkkIj1mS5u6vCQ-3" edge="1">
          <mxGeometry width="50" height="50" relative="1" as="geometry">
            <mxPoint y="627" as="sourcePoint" />
            <mxPoint x="-22" y="407" as="targetPoint" />
          </mxGeometry>
        </mxCell>
        <mxCell id="PJscLLjkkIj1mS5u6vCQ-42" value="Данные верны" style="text;html=1;align=center;verticalAlign=middle;resizable=0;points=[];autosize=1;strokeColor=#82b366;fillColor=#d5e8d4;" parent="1" vertex="1">
          <mxGeometry x="-2" y="591" width="110" height="33" as="geometry" />
        </mxCell>
        <mxCell id="PJscLLjkkIj1mS5u6vCQ-43" style="edgeStyle=orthogonalEdgeStyle;rounded=0;orthogonalLoop=1;jettySize=auto;html=1;entryX=0.427;entryY=0.005;entryDx=0;entryDy=0;entryPerimeter=0;fillColor=#d5e8d4;strokeColor=#82b366;" parent="1" source="PJscLLjkkIj1mS5u6vCQ-17" target="PJscLLjkkIj1mS5u6vCQ-38" edge="1">
          <mxGeometry relative="1" as="geometry" />
        </mxCell>
        <mxCell id="PJscLLjkkIj1mS5u6vCQ-44" value="Данные верны" style="text;html=1;align=center;verticalAlign=middle;whiteSpace=wrap;rounded=0;fillColor=#d5e8d4;strokeColor=#82b366;" parent="1" vertex="1">
          <mxGeometry x="-165" y="605" width="60" height="30" as="geometry" />
        </mxCell>
        <mxCell id="PJscLLjkkIj1mS5u6vCQ-45" value="Доступные действия" style="rounded=0;whiteSpace=wrap;html=1;" parent="1" vertex="1">
          <mxGeometry x="-143" y="715" width="297" height="44" as="geometry" />
        </mxCell>
        <mxCell id="PJscLLjkkIj1mS5u6vCQ-47" value="&lt;div&gt;- Название данных&lt;br&gt;&lt;/div&gt;&lt;div&gt;- Номер карты&lt;/div&gt;&lt;div&gt;- сродк действия&lt;/div&gt;&lt;div&gt;- код безопасти&lt;/div&gt;&lt;div&gt;- фио держателя&lt;/div&gt;&lt;div&gt;- Название банка&lt;/div&gt;&lt;div&gt;- телефон держателя&lt;/div&gt;&lt;div&gt;- номер расчётного счета&lt;/div&gt;&lt;div&gt;&lt;br&gt;&lt;/div&gt;&lt;div&gt;- заметка&lt;/div&gt;&lt;div&gt;&lt;br&gt;&lt;/div&gt;&lt;div&gt;-Сохранить&lt;/div&gt;&lt;div&gt;- Вернуться&lt;br&gt;&lt;/div&gt;" style="rounded=1;whiteSpace=wrap;html=1;" parent="1" vertex="1">
          <mxGeometry x="550" y="635" width="264" height="333" as="geometry" />
        </mxCell>
        <mxCell id="PJscLLjkkIj1mS5u6vCQ-48" value="Данные банковских карт" style="rounded=0;whiteSpace=wrap;html=1;" parent="1" vertex="1">
          <mxGeometry x="627" y="635" width="120" height="60" as="geometry" />
        </mxCell>
        <mxCell id="PJscLLjkkIj1mS5u6vCQ-49" value="&lt;div&gt;- Название данных&lt;/div&gt;&lt;div&gt;&lt;br&gt;&lt;/div&gt;&lt;div&gt;- текстовое поле&lt;/div&gt;&lt;div&gt;&lt;br&gt;&lt;/div&gt;&lt;div&gt;- заметка&lt;/div&gt;&lt;div&gt;&lt;br&gt;&lt;/div&gt;&lt;div&gt;-Сохранить&lt;/div&gt;&lt;div&gt;- Вернуться&lt;br&gt;&lt;/div&gt;" style="rounded=1;whiteSpace=wrap;html=1;" parent="1" vertex="1">
          <mxGeometry x="552" y="1023" width="275" height="319" as="geometry" />
        </mxCell>
        <mxCell id="PJscLLjkkIj1mS5u6vCQ-50" value="Произвольные текстовые данные" style="rounded=0;whiteSpace=wrap;html=1;" parent="1" vertex="1">
          <mxGeometry x="629.5" y="1023" width="120" height="60" as="geometry" />
        </mxCell>
        <mxCell id="PJscLLjkkIj1mS5u6vCQ-51" value="&lt;div&gt;&amp;nbsp;- Название данных&lt;br&gt;&lt;/div&gt;&lt;div&gt;- Загрузить файл&lt;/div&gt;&lt;div&gt;&lt;br&gt;&lt;/div&gt;&lt;div&gt;- заметка&lt;/div&gt;&lt;div&gt;&lt;br&gt;&lt;/div&gt;&lt;div&gt;-Отправить&lt;/div&gt;&lt;div&gt;- Вернуться&lt;br&gt;&lt;/div&gt;" style="rounded=1;whiteSpace=wrap;html=1;" parent="1" vertex="1">
          <mxGeometry x="550" y="1397" width="275" height="363" as="geometry" />
        </mxCell>
        <mxCell id="PJscLLjkkIj1mS5u6vCQ-52" value="Бинарные данные" style="rounded=0;whiteSpace=wrap;html=1;" parent="1" vertex="1">
          <mxGeometry x="628" y="1397" width="120" height="60" as="geometry" />
        </mxCell>
        <mxCell id="PJscLLjkkIj1mS5u6vCQ-54" value="" style="endArrow=classic;html=1;rounded=0;entryX=-0.015;entryY=0.438;entryDx=0;entryDy=0;entryPerimeter=0;exitX=1;exitY=0.374;exitDx=0;exitDy=0;exitPerimeter=0;" parent="1" source="PJscLLjkkIj1mS5u6vCQ-38" target="PJscLLjkkIj1mS5u6vCQ-47" edge="1">
          <mxGeometry width="50" height="50" relative="1" as="geometry">
            <mxPoint x="132" y="1051" as="sourcePoint" />
            <mxPoint x="182" y="1001" as="targetPoint" />
          </mxGeometry>
        </mxCell>
        <mxCell id="PJscLLjkkIj1mS5u6vCQ-55" value="" style="endArrow=classic;html=1;rounded=0;entryX=-0.007;entryY=0.448;entryDx=0;entryDy=0;entryPerimeter=0;exitX=0.995;exitY=0.95;exitDx=0;exitDy=0;exitPerimeter=0;" parent="1" source="PJscLLjkkIj1mS5u6vCQ-38" target="PJscLLjkkIj1mS5u6vCQ-49" edge="1">
          <mxGeometry width="50" height="50" relative="1" as="geometry">
            <mxPoint x="132" y="1051" as="sourcePoint" />
            <mxPoint x="182" y="1001" as="targetPoint" />
          </mxGeometry>
        </mxCell>
        <mxCell id="PJscLLjkkIj1mS5u6vCQ-56" value="" style="endArrow=classic;html=1;rounded=0;entryX=0.003;entryY=0.38;entryDx=0;entryDy=0;entryPerimeter=0;" parent="1" target="PJscLLjkkIj1mS5u6vCQ-51" edge="1">
          <mxGeometry width="50" height="50" relative="1" as="geometry">
            <mxPoint x="77" y="891" as="sourcePoint" />
            <mxPoint x="182" y="1001" as="targetPoint" />
          </mxGeometry>
        </mxCell>
        <mxCell id="PJscLLjkkIj1mS5u6vCQ-57" value="сервер" style="ellipse;whiteSpace=wrap;html=1;aspect=fixed;" parent="1" vertex="1">
          <mxGeometry x="-792" y="858" width="264" height="264" as="geometry" />
        </mxCell>
        <mxCell id="PJscLLjkkIj1mS5u6vCQ-58" value="" style="endArrow=classic;startArrow=classic;html=1;rounded=0;exitX=0.542;exitY=0;exitDx=0;exitDy=0;exitPerimeter=0;" parent="1" source="PJscLLjkkIj1mS5u6vCQ-57" edge="1">
          <mxGeometry width="50" height="50" relative="1" as="geometry">
            <mxPoint x="-308" y="622" as="sourcePoint" />
            <mxPoint x="-258" y="572" as="targetPoint" />
          </mxGeometry>
        </mxCell>
        <mxCell id="PJscLLjkkIj1mS5u6vCQ-59" value="" style="endArrow=classic;startArrow=classic;html=1;rounded=0;" parent="1" source="PJscLLjkkIj1mS5u6vCQ-57" edge="1">
          <mxGeometry width="50" height="50" relative="1" as="geometry">
            <mxPoint x="66" y="589" as="sourcePoint" />
            <mxPoint x="116" y="539" as="targetPoint" />
          </mxGeometry>
        </mxCell>
        <mxCell id="PJscLLjkkIj1mS5u6vCQ-60" value="подготовка данных" style="whiteSpace=wrap;html=1;aspect=fixed;" parent="1" vertex="1">
          <mxGeometry x="-149" y="1169" width="147" height="147" as="geometry" />
        </mxCell>
        <mxCell id="PJscLLjkkIj1mS5u6vCQ-61" value="" style="endArrow=classic;html=1;rounded=0;exitX=0.007;exitY=0.714;exitDx=0;exitDy=0;exitPerimeter=0;" parent="1" source="PJscLLjkkIj1mS5u6vCQ-47" edge="1">
          <mxGeometry width="50" height="50" relative="1" as="geometry">
            <mxPoint x="374" y="897" as="sourcePoint" />
            <mxPoint y="1221" as="targetPoint" />
          </mxGeometry>
        </mxCell>
        <mxCell id="PJscLLjkkIj1mS5u6vCQ-62" value="" style="endArrow=classic;html=1;rounded=0;" parent="1" edge="1">
          <mxGeometry width="50" height="50" relative="1" as="geometry">
            <mxPoint x="550" y="1199" as="sourcePoint" />
            <mxPoint y="1254" as="targetPoint" />
          </mxGeometry>
        </mxCell>
        <mxCell id="PJscLLjkkIj1mS5u6vCQ-63" value="" style="endArrow=classic;html=1;rounded=0;exitX=0;exitY=0.5;exitDx=0;exitDy=0;entryX=1;entryY=0.75;entryDx=0;entryDy=0;" parent="1" source="PJscLLjkkIj1mS5u6vCQ-51" target="PJscLLjkkIj1mS5u6vCQ-60" edge="1">
          <mxGeometry width="50" height="50" relative="1" as="geometry">
            <mxPoint x="209" y="1513" as="sourcePoint" />
            <mxPoint x="259" y="1463" as="targetPoint" />
          </mxGeometry>
        </mxCell>
        <mxCell id="PJscLLjkkIj1mS5u6vCQ-64" value="" style="endArrow=classic;startArrow=classic;html=1;rounded=0;" parent="1" source="PJscLLjkkIj1mS5u6vCQ-60" target="PJscLLjkkIj1mS5u6vCQ-57" edge="1">
          <mxGeometry width="50" height="50" relative="1" as="geometry">
            <mxPoint x="-407" y="1150" as="sourcePoint" />
            <mxPoint x="-357" y="1100" as="targetPoint" />
          </mxGeometry>
        </mxCell>
        <mxCell id="PJscLLjkkIj1mS5u6vCQ-65" value="&amp;nbsp;Тип, Название, дата добавления, даза изменения" style="rounded=1;whiteSpace=wrap;html=1;" parent="1" vertex="1">
          <mxGeometry x="-440" y="1408" width="506" height="292" as="geometry" />
        </mxCell>
        <mxCell id="PJscLLjkkIj1mS5u6vCQ-66" value="Данные пользователя" style="rounded=0;whiteSpace=wrap;html=1;" parent="1" vertex="1">
          <mxGeometry x="-330" y="1408" width="286" height="60" as="geometry" />
        </mxCell>
        <mxCell id="PJscLLjkkIj1mS5u6vCQ-70" value="" style="endArrow=classic;html=1;rounded=0;exitX=1;exitY=0.5;exitDx=0;exitDy=0;" parent="1" source="PJscLLjkkIj1mS5u6vCQ-65" edge="1">
          <mxGeometry width="50" height="50" relative="1" as="geometry">
            <mxPoint x="220" y="1612" as="sourcePoint" />
            <mxPoint x="539" y="1628" as="targetPoint" />
          </mxGeometry>
        </mxCell>
        <mxCell id="PJscLLjkkIj1mS5u6vCQ-71" value="" style="endArrow=classic;html=1;rounded=0;" parent="1" edge="1">
          <mxGeometry width="50" height="50" relative="1" as="geometry">
            <mxPoint x="77" y="1518" as="sourcePoint" />
            <mxPoint x="528" y="1265" as="targetPoint" />
          </mxGeometry>
        </mxCell>
        <mxCell id="PJscLLjkkIj1mS5u6vCQ-72" value="" style="endArrow=classic;html=1;rounded=0;entryX=0.025;entryY=0.954;entryDx=0;entryDy=0;entryPerimeter=0;exitX=1.005;exitY=0.186;exitDx=0;exitDy=0;exitPerimeter=0;" parent="1" source="PJscLLjkkIj1mS5u6vCQ-65" target="PJscLLjkkIj1mS5u6vCQ-47" edge="1">
          <mxGeometry width="50" height="50" relative="1" as="geometry">
            <mxPoint x="187" y="1370" as="sourcePoint" />
            <mxPoint x="237" y="1320" as="targetPoint" />
          </mxGeometry>
        </mxCell>
        <mxCell id="PJscLLjkkIj1mS5u6vCQ-73" value="" style="endArrow=classic;html=1;rounded=0;exitX=0.344;exitY=0.997;exitDx=0;exitDy=0;exitPerimeter=0;entryX=0.135;entryY=-0.004;entryDx=0;entryDy=0;entryPerimeter=0;" parent="1" source="PJscLLjkkIj1mS5u6vCQ-38" target="PJscLLjkkIj1mS5u6vCQ-65" edge="1">
          <mxGeometry width="50" height="50" relative="1" as="geometry">
            <mxPoint x="-165" y="1062" as="sourcePoint" />
            <mxPoint x="-115" y="1012" as="targetPoint" />
          </mxGeometry>
        </mxCell>
      </root>
    </mxGraphModel>
  </diagram>
</mxfile>
